<?xml version="1.0" standalone="no"?>
<!DOCTYPE svg PUBLIC "-//W3C//DTD SVG 20010904//EN"
 "http://www.w3.org/TR/2001/REC-SVG-20010904/DTD/svg10.dtd">
<svg version="1.0" xmlns="http://www.w3.org/2000/svg"
 width="512.000000pt" height="512.000000pt" viewBox="0 0 512.000000 512.000000"
 preserveAspectRatio="xMidYMid meet">
<metadata>
Created by potrace 1.14, written by Peter Selinger 2001-2017
</metadata>
<g transform="translate(0.000000,512.000000) scale(0.100000,-0.100000)"
fill="#000000" stroke="none">
<path d="M2384 5110 c-892 -60 -1691 -589 -2098 -1388 -36 -71 -81 -167 -100
-213 -19 -46 -42 -102 -51 -123 -27 -62 -91 -330 -111 -461 -26 -171 -26 -562
0 -730 86 -561 334 -1053 726 -1445 392 -392 887 -641 1445 -726 171 -26 562
-26 730 0 561 86 1053 334 1445 726 392 392 641 887 726 1445 26 171 26 561 0
730 -100 650 -440 1233 -961 1647 -274 217 -669 405 -1015 482 -227 50 -505
71 -736 56z m408 -468 c260 -128 293 -485 60 -657 -174 -129 -435 -80 -550
103 -95 151 -79 338 39 467 84 91 171 126 300 122 74 -3 96 -8 151 -35z
m-1098 -743 c64 -16 106 -65 106 -122 0 -23 -21 -116 -45 -207 -25 -91 -99
-374 -166 -630 -67 -256 -128 -477 -135 -492 -19 -36 -54 -59 -101 -65 -38 -5
-528 105 -583 130 -29 14 -70 72 -70 99 0 20 189 765 220 869 48 159 181 301
354 379 122 56 292 71 420 39z m811 -254 c137 -29 179 -58 416 -292 l215 -213
137 0 137 0 0 83 c0 138 41 177 187 177 93 0 137 -19 165 -71 17 -32 18 -94
18 -1337 0 -1439 4 -1347 -63 -1387 -24 -14 -56 -20 -128 -23 -110 -5 -147 8
-179 61 -19 31 -20 58 -20 1009 l0 977 -222 3 c-276 4 -276 4 -424 150 -57 56
-106 99 -109 96 -3 -3 -39 -148 -81 -322 l-76 -317 214 -217 c319 -324 308
-294 308 -847 0 -388 0 -390 -24 -441 -48 -104 -168 -168 -273 -146 -91 19
-169 89 -193 173 -6 19 -10 186 -10 384 l0 350 -356 355 c-195 195 -367 374
-381 397 -50 86 -48 107 82 623 70 281 127 489 145 527 60 130 181 221 335
253 61 12 103 11 180 -5z m-570 -2484 c-58 -233 -112 -435 -119 -450 -8 -14
-27 -39 -42 -55 -143 -142 -385 -65 -425 134 -10 53 -7 72 121 595 72 297 135
558 141 579 l11 39 209 -209 210 -210 -106 -423z"/>
</g>
</svg>
