<svg width="41" height="40" viewBox="0 0 41 40" fill="none" xmlns="http://www.w3.org/2000/svg">
<path fill-rule="evenodd" clip-rule="evenodd" d="M21.1431 34.6388C21.1431 34.6388 33.3282 20.697 33.3282 13.3337C33.3282 5.96982 27.3584 0 19.9953 0C12.6314 0 6.66241 5.96973 6.66241 13.3337C6.66241 20.6973 18.8535 34.6457 18.8535 34.6457C19.4843 35.3939 20.5104 35.3976 21.1443 34.639L21.1431 34.6388ZM7.10608 35.1111C7.10608 38.0758 12.879 40 19.9949 40C27.1107 40 32.8837 38.0758 32.8837 35.1111C32.8837 33.1242 30.4343 31.6704 26.5729 30.8351C26.0929 30.7313 25.6198 31.0362 25.5161 31.5159C25.4123 31.9957 25.7172 32.4687 26.1969 32.5728C29.2814 33.24 31.1056 34.3228 31.1056 35.1112C31.1056 36.5647 26.1332 38.2223 19.9948 38.2223C13.8559 38.2223 8.88325 36.5647 8.88325 35.1112C8.88325 34.3109 10.7544 33.2176 13.8839 32.5745C14.3647 32.4757 14.6746 32.0057 14.5758 31.525C14.4767 31.0439 14.007 30.7344 13.526 30.8331C9.61323 31.6374 7.1055 33.1022 7.1055 35.1112L7.10608 35.1111Z" fill="#A855F7"/>
<path d="M22.2974 11.322C22.0306 11.081 21.8957 10.7482 22.0248 10.4269L22.8999 8.24308C23.0462 7.87269 23.4794 7.70314 23.8208 7.91171C24.429 8.28468 24.977 8.74342 25.4504 9.27131C25.7143 9.56366 25.634 10.0138 25.3069 10.2318L23.3675 11.5229C23.072 11.7208 22.6761 11.6548 22.4093 11.4196C22.372 11.3852 22.3347 11.3536 22.2974 11.322ZM21.1814 10.0626C21.0523 10.3638 20.6994 10.556 20.3494 10.5216C20.2318 10.5101 20.1084 10.5044 19.985 10.5044C19.8617 10.5044 19.7383 10.5101 19.6207 10.5216C19.2707 10.556 18.9178 10.3638 18.7887 10.0626L17.8936 7.88847C17.7702 7.52125 17.9624 7.10275 18.3239 7.01499C18.8747 6.89533 19.4227 6.83212 19.985 6.83212C20.5473 6.83212 21.0953 6.89533 21.6203 7.01499C22.0076 7.10275 22.1999 7.52125 22.0507 7.88847L21.1814 10.0626ZM16.1492 7.91171C16.4906 7.70314 16.9238 7.87269 17.0702 8.24308L17.9452 10.4269C18.0743 10.7482 17.9395 11.081 17.6726 11.322C17.6354 11.3536 17.5981 11.3852 17.5608 11.4196C17.2939 11.6548 16.898 11.7208 16.6025 11.5229L14.6637 10.2318C14.3369 10.0138 14.2563 9.56366 14.5185 9.27131C14.9928 8.74342 15.541 8.28468 16.1492 7.91171ZM23.5282 13.2041C23.4364 12.877 23.5339 12.5155 23.8151 12.329L25.7832 11.0151C26.116 10.7942 26.5721 10.9032 26.7328 11.2704C27.0312 11.9618 27.2263 12.7077 27.298 13.4881C27.3324 13.8668 27.0226 14.1508 26.641 14.1508H24.3458C23.9643 14.1508 23.663 13.8668 23.5942 13.491C23.5741 13.3934 23.554 13.2987 23.5282 13.2041ZM16.155 12.329C16.4361 12.5155 16.5337 12.877 16.4419 13.2041C16.416 13.2987 16.396 13.3934 16.3759 13.491C16.307 13.8668 16.0058 14.1767 15.6242 14.1767H13.3291C12.9489 14.1767 12.6371 13.8668 12.6723 13.4881C12.7448 12.7077 12.9397 11.9618 13.2378 11.2704C13.3968 10.9032 13.8529 10.7942 14.1872 11.0151L16.155 12.329ZM15.6242 15.0947C16.0058 15.0947 16.3128 15.4017 16.3128 15.7833V17.1604C16.3128 17.5419 16.0058 17.8489 15.6242 17.8489H13.3291C12.9489 17.8489 12.6405 17.5419 12.6405 17.1604V15.7833C12.6405 15.4017 12.9489 15.0947 13.3291 15.0947H15.6242ZM26.641 15.0947C27.0226 15.0947 27.3295 15.4017 27.3295 15.7833V17.1604C27.3295 17.5419 27.0226 17.8489 26.641 17.8489H24.3458C23.9643 17.8489 23.6573 17.5419 23.6573 17.1604V15.7833C23.6573 15.4017 23.9643 15.0947 24.3458 15.0947H26.641ZM15.6242 18.767C16.0058 18.767 16.3128 19.074 16.3128 19.4555V20.8326C16.3128 21.2142 16.0058 21.5212 15.6242 21.5212H13.3291C12.9489 21.5212 12.6405 21.2142 12.6405 20.8326V19.4555C12.6405 19.074 12.9489 18.767 13.3291 18.767H15.6242ZM26.641 18.767C27.0226 18.767 27.3295 19.074 27.3295 19.4555V20.8326C27.3295 21.2142 27.0226 21.5212 26.641 21.5212H24.3458C23.9643 21.5212 23.6573 21.2142 23.6573 20.8326V19.4555C23.6573 19.074 23.9643 18.767 24.3458 18.767H26.641ZM20.4441 20.1441C20.4441 20.3965 20.2375 20.6031 19.985 20.6031C19.7326 20.6031 19.526 20.3965 19.526 20.1441V12.3405C19.526 12.0881 19.7326 11.8815 19.985 11.8815C20.2375 11.8815 20.4441 12.0881 20.4441 12.3405V20.1441ZM18.6079 20.1441C18.6079 20.3965 18.4014 20.6031 18.1489 20.6031C17.8964 20.6031 17.6899 20.3965 17.6899 20.1441V13.2586C17.6899 13.0061 17.8964 12.7996 18.1489 12.7996C18.4014 12.7996 18.6079 13.0061 18.6079 13.2586V20.1441ZM22.2802 20.1441C22.2802 20.3965 22.0736 20.6031 21.8212 20.6031C21.5687 20.6031 21.3621 20.3965 21.3621 20.1441V13.2586C21.3621 13.0061 21.5687 12.7996 21.8212 12.7996C22.0736 12.7996 22.2802 13.0061 22.2802 13.2586V20.1441Z" fill="white"/>
</svg>
