<svg width="40" height="40" viewBox="0 0 40 40" fill="none" xmlns="http://www.w3.org/2000/svg">
<path fill-rule="evenodd" clip-rule="evenodd" d="M21.1424 34.6388C21.1424 34.6388 33.3274 20.697 33.3274 13.3337C33.3274 5.96982 27.3577 0 19.9946 0C12.6306 0 6.66168 5.96973 6.66168 13.3337C6.66168 20.6973 18.8527 34.6457 18.8527 34.6457C19.4836 35.3939 20.5097 35.3976 21.1435 34.639L21.1424 34.6388ZM7.10534 35.1111C7.10534 38.0758 12.8783 40 19.9941 40C27.11 40 32.8829 38.0758 32.8829 35.1111C32.8829 33.1242 30.4336 31.6704 26.5722 30.8351C26.0921 30.7313 25.6191 31.0362 25.5153 31.5159C25.4116 31.9957 25.7165 32.4687 26.1962 32.5728C29.2807 33.24 31.1048 34.3228 31.1048 35.1112C31.1048 36.5647 26.1325 38.2223 19.9941 38.2223C13.8552 38.2223 8.88252 36.5647 8.88252 35.1112C8.88252 34.3109 10.7537 33.2176 13.8832 32.5745C14.3639 32.4757 14.6738 32.0057 14.5751 31.525C14.476 31.0439 14.0063 30.7344 13.5253 30.8331C9.6125 31.6374 7.10477 33.1022 7.10477 35.1112L7.10534 35.1111Z" fill="#22C55E"/>
<path d="M21.7191 8.29462C22.6651 8.29462 23.4325 7.52718 23.4325 6.58126C23.4325 5.63534 22.6651 4.86789 21.7191 4.86789C20.7732 4.86789 20.0058 5.63534 20.0058 6.58126C20.0058 7.52718 20.7732 8.29462 21.7191 8.29462ZM16.0083 15.116C16.2692 15.116 16.5069 14.946 16.5748 14.6926L18.0425 9.04422C18.0549 8.99814 18.0608 8.95184 18.0608 8.90622C18.0608 8.65597 17.8829 8.42648 17.6186 8.36616C17.3786 8.30819 17.1395 8.28035 16.9039 8.28035C15.5956 8.28035 14.4052 9.13132 14.0725 10.4053L13.1706 13.9095C13.1582 13.9559 13.1522 14.0023 13.1522 14.0487C13.1522 14.2987 13.3293 14.5277 13.5934 14.588L15.8655 15.1302C15.9133 15.141 15.9612 15.116 16.0083 15.116ZM26.2881 10.5791H25.7491C25.4323 10.5791 25.2101 10.8334 25.2101 11.1502V11.7214H23.9697L22.301 10.0526C21.8405 9.65461 21.3122 9.43687 20.7518 9.43687C19.788 9.43687 18.9528 10.0901 18.7172 11.0253L17.757 14.8732C17.7356 14.9625 17.7213 15.0589 17.7213 15.1517C17.7213 15.4488 17.8378 15.7385 18.0552 15.9559L21.1471 19.0481V22.0016C21.1471 22.6305 21.66 23.1438 22.2572 23.1438C22.8544 23.1438 23.3995 22.6305 23.3995 22.0016V19.0478C23.3995 18.4367 23.163 17.8652 22.7302 17.4326L21.0571 15.7592C21.0661 15.7413 21.075 15.728 21.0795 15.7101L21.7612 12.8723L22.5597 13.6712C22.84 13.8845 23.1291 14.0058 23.4325 14.0058H25.1137V22.5727C25.1137 22.8895 25.3681 23.1438 25.6527 23.1438H26.1917C26.6058 23.1438 26.8592 22.8904 26.8592 22.5727V11.1502C26.8592 10.8325 26.6058 10.5791 26.2881 10.5791ZM16.044 21.7267C16.02 21.8206 16.0085 21.9147 16.0085 22.0073C16.0085 22.5174 16.3565 22.9814 16.8738 23.1099C16.9681 23.1367 17.0609 23.1438 17.1502 23.1438C17.6631 23.1438 18.1271 22.7958 18.2246 22.2782L19.1259 18.673L17.243 16.7901L16.044 21.7267Z" fill="white"/>
</svg>
