<svg width="40" height="40" viewBox="0 0 40 40" fill="none" xmlns="http://www.w3.org/2000/svg">
<path fill-rule="evenodd" clip-rule="evenodd" d="M21.1427 34.6388C21.1427 34.6388 33.3278 20.697 33.3278 13.3337C33.3278 5.96982 27.3581 0 19.9949 0C12.631 0 6.66205 5.96973 6.66205 13.3337C6.66205 20.6973 18.8531 34.6457 18.8531 34.6457C19.4839 35.3939 20.5101 35.3976 21.1439 34.639L21.1427 34.6388ZM7.10571 35.1111C7.10571 38.0758 12.8787 40 19.9945 40C27.1103 40 32.8833 38.0758 32.8833 35.1111C32.8833 33.1242 30.434 31.6704 26.5725 30.8351C26.0925 30.7313 25.6195 31.0362 25.5157 31.5159C25.412 31.9957 25.7169 32.4687 26.1966 32.5728C29.281 33.24 31.1052 34.3228 31.1052 35.1112C31.1052 36.5647 26.1329 38.2223 19.9945 38.2223C13.8556 38.2223 8.88289 36.5647 8.88289 35.1112C8.88289 34.3109 10.754 33.2176 13.8836 32.5745C14.3643 32.4757 14.6742 32.0057 14.5755 31.525C14.4764 31.0439 14.0067 30.7344 13.5256 30.8331C9.61287 31.6374 7.10514 33.1022 7.10514 35.1112L7.10571 35.1111Z" fill="#6366F1"/>
<path d="M24.575 8.48677C24.575 8.2323 24.3713 8.02774 24.1159 8.02774H22.2798C22.0245 8.02774 21.8208 8.2323 21.8208 8.48677V9.86387H24.5761L24.575 8.48677ZM14.4728 11.7029C14.4 14.394 12.7406 14.9792 12.6401 18.7003V19.9626C12.6401 20.4675 13.0533 20.8807 13.5582 20.8807H17.2305C17.7354 20.8807 18.1485 20.4675 18.1485 19.9626V10.7819H15.3909C14.8854 10.7819 14.4863 11.1979 14.4728 11.7029ZM25.4959 11.7029C25.4816 11.1979 25.0828 10.7819 24.5779 10.7819H21.8208V19.9626C21.8208 20.4675 22.2339 20.8807 22.7389 20.8807H26.4111C26.916 20.8807 27.3292 20.4675 27.3292 19.9626V18.7003C27.2288 14.9792 25.5705 14.394 25.4959 11.7029ZM19.0666 15.3723H20.9027V10.7819H19.0666V15.3723ZM17.6895 8.02774H15.8534C15.598 8.02774 15.3943 8.2323 15.3943 8.48677L15.3932 9.86387H18.1485V8.48677C18.1485 8.2323 17.9448 8.02774 17.6895 8.02774Z" fill="white"/>
</svg>
