<svg width="40" height="40" viewBox="0 0 40 40" fill="none" xmlns="http://www.w3.org/2000/svg">
<path fill-rule="evenodd" clip-rule="evenodd" d="M21.142 34.6388C21.142 34.6388 33.3271 20.697 33.3271 13.3337C33.3271 5.96982 27.3573 0 19.9942 0C12.6303 0 6.66132 5.96973 6.66132 13.3337C6.66132 20.6973 18.8524 34.6457 18.8524 34.6457C19.4832 35.3939 20.5093 35.3976 21.1432 34.639L21.142 34.6388ZM7.10498 35.1111C7.10498 38.0758 12.8779 40 19.9938 40C27.1096 40 32.8826 38.0758 32.8826 35.1111C32.8826 33.1242 30.4332 31.6704 26.5718 30.8351C26.0918 30.7313 25.6187 31.0362 25.515 31.5159C25.4112 31.9957 25.7161 32.4687 26.1958 32.5728C29.2803 33.24 31.1045 34.3228 31.1045 35.1112C31.1045 36.5647 26.1321 38.2223 19.9937 38.2223C13.8548 38.2223 8.88216 36.5647 8.88216 35.1112C8.88216 34.3109 10.7533 33.2176 13.8828 32.5745C14.3636 32.4757 14.6735 32.0057 14.5747 31.525C14.4756 31.0439 14.0059 30.7344 13.5249 30.8331C9.61213 31.6374 7.10441 33.1022 7.10441 35.1112L7.10498 35.1111Z" fill="#84CC16"/>
<path d="M21.697 9.06288C22.6447 9.06288 23.3814 8.29579 23.3814 7.34987C23.3814 6.40395 22.6447 5.63651 21.697 5.63651C20.7493 5.63651 19.9518 6.40359 19.9518 7.34952C19.9518 8.29544 20.7493 9.06288 21.697 9.06288ZM16.8946 19.4041C16.7783 19.6941 16.6085 19.9574 16.385 20.1712L14.5972 21.9603C14.3737 22.1832 14.262 22.4764 14.262 22.7698C14.2621 23.6661 15.0822 23.9124 15.4062 23.9124C15.6989 23.9124 15.9916 23.8009 16.2151 23.5778L18.3379 21.4546C18.557 21.2405 18.7266 20.9774 18.8475 20.6875L19.3303 19.4832C17.3505 17.3333 17.9449 17.9933 17.632 17.5649L16.8946 19.4041ZM25.7059 15.4134C25.7059 14.9933 25.4773 14.5871 25.0776 14.3875L24.2465 13.9635L23.8964 12.9147C23.6978 12.3151 22.7148 10.2058 20.2165 10.2058C18.9441 10.2058 18.2338 10.5706 16.9056 11.1075C16.1346 11.4156 15.5045 12.0045 15.129 12.7541L14.8923 13.2396C14.8104 13.4038 14.7714 13.5787 14.7714 13.75C14.7714 14.3658 15.2642 14.8912 15.9025 14.8912C16.3174 14.8912 16.7172 14.6608 16.9171 14.2619L17.1584 13.7757C17.2836 13.5258 17.4891 13.3295 17.7485 13.2267L18.7038 12.8398L18.1638 15.0065C18.1173 15.1885 18.0958 15.3777 18.0958 15.5598C18.0958 16.1234 18.3063 16.6767 18.6966 17.1032L20.8373 19.4416C21.0966 19.7227 21.2797 20.062 21.3691 20.4275L22.026 23.0472C22.1551 23.563 22.6229 23.911 23.1361 23.911C23.8266 23.911 24.2808 23.3352 24.2808 22.767C24.2808 22.6766 24.2699 22.585 24.2471 22.4938L23.4514 19.3166C23.3575 18.9461 23.1743 18.6023 22.9196 18.3257L21.2928 16.5495L21.905 14.0998L22.1017 14.6887C22.2939 15.2645 22.7007 15.7374 23.2367 16.0098L24.0678 16.4292C24.2303 16.511 24.403 16.5497 24.5732 16.5497C25.1624 16.5521 25.7059 16.0773 25.7059 15.4134Z" fill="white"/>
</svg>
