<svg width="40" height="40" viewBox="0 0 40 40" fill="none" xmlns="http://www.w3.org/2000/svg">
<path fill-rule="evenodd" clip-rule="evenodd" d="M21.142 34.6388C21.142 34.6388 33.3271 20.697 33.3271 13.3337C33.3271 5.96982 27.3573 0 19.9942 0C12.6303 0 6.66132 5.96973 6.66132 13.3337C6.66132 20.6973 18.8524 34.6457 18.8524 34.6457C19.4832 35.3939 20.5093 35.3976 21.1432 34.639L21.142 34.6388ZM7.10498 35.1111C7.10498 38.0758 12.8779 40 19.9938 40C27.1096 40 32.8826 38.0758 32.8826 35.1111C32.8826 33.1242 30.4332 31.6704 26.5718 30.8351C26.0918 30.7313 25.6187 31.0362 25.515 31.5159C25.4112 31.9957 25.7161 32.4687 26.1958 32.5728C29.2803 33.24 31.1045 34.3228 31.1045 35.1112C31.1045 36.5647 26.1321 38.2223 19.9937 38.2223C13.8548 38.2223 8.88216 36.5647 8.88216 35.1112C8.88216 34.3109 10.7533 33.2176 13.8828 32.5745C14.3636 32.4757 14.6735 32.0057 14.5747 31.525C14.4756 31.0439 14.0059 30.7344 13.5249 30.8331C9.61213 31.6374 7.10441 33.1022 7.10441 35.1112L7.10498 35.1111Z" fill="#DB2777"/>
<path d="M29 11.2C29 11.5071 28.8814 11.8142 28.6443 12.0482L18.93 21.6483C18.6938 21.8838 18.3826 22 18.0714 22C17.7603 22 17.4499 21.8828 17.2131 21.6484L12.3559 16.8484C12.1188 16.615 12 16.3075 12 16C12 15.3145 12.5673 14.8 13.2143 14.8C13.525 14.8 13.8358 14.9172 14.0726 15.1516L18.0714 19.105L26.9281 10.3525C27.1634 10.1174 27.4746 10 27.7857 10C28.4346 10 29 10.5138 29 11.2Z" fill="white"/>
</svg>
